<svg width="168" height="49" viewBox="0 0 168 49" fill="none" xmlns="http://www.w3.org/2000/svg">
<circle cx="123.954" cy="18.9543" r="4.95427" stroke="#8D58E3" stroke-width="4"/>
<path d="M53.4946 15.3068C50.5207 15.6342 54.9594 11.6558 52.1267 9.98212C49.2939 8.30841 48.628 12.5183 45.7745 11.614C42.921 10.7098 47.2282 6.21935 43.9067 4.34374C40.5853 2.46813 39.738 6.39713 36.3847 3.54729" stroke="#8D58E3" stroke-width="2" stroke-linecap="round" stroke-linejoin="round"/>
<path d="M144 44.9458L156.165 38.1363C158.272 36.9564 160.937 37.7086 162.117 39.8164L149.952 46.6259C147.845 47.8058 145.18 47.0536 144 44.9458Z" fill="#E95471"/>
<path d="M95.1875 18.5372L87.0998 29.8926C85.6985 31.8601 82.9675 32.319 81 30.9177L89.0877 19.5624C90.489 17.5949 93.22 17.1359 95.1875 18.5372Z" fill="#8D58E3"/>
<circle cx="4.52028" cy="40.5203" r="2.52028" stroke="#E95471" stroke-width="4"/>
</svg>
