<svg width="0" height="0" class="hidden">
  <symbol fill="none" xmlns="http://www.w3.org/2000/svg" viewBox="0 0 12 14" id="geo">
    <path d="M9.98212 9.9355L5.83397 14L1.68582 9.87098C-0.582694 7.61292 -0.582694 3.9355 1.68582 1.67743C3.95434 -0.580629 7.64879 -0.580629 9.91731 1.67743C12.2506 4.00001 12.2506 7.61292 9.98212 9.9355ZM5.83397 7.74195C6.93582 7.74195 7.77842 6.90324 7.77842 5.80647C7.77842 4.70969 6.93582 3.87098 5.83397 3.87098C4.73212 3.87098 3.88953 4.70969 3.88953 5.80647C3.88953 6.90324 4.73212 7.74195 5.83397 7.74195Z" fill="#7B94B0"></path>
  </symbol>
  <symbol fill="none" xmlns="http://www.w3.org/2000/svg" viewBox="0 0 24 24" id="instagram">
    <path d="M11.625 8.4C10.7001 8.4 9.813 8.77928 9.15897 9.45442C8.50493 10.1295 8.1375 11.0452 8.1375 12C8.1375 12.9548 8.50493 13.8705 9.15897 14.5456C9.813 15.2207 10.7001 15.6 11.625 15.6C12.5499 15.6 13.437 15.2207 14.091 14.5456C14.7451 13.8705 15.1125 12.9548 15.1125 12C15.1125 11.0452 14.7451 10.1295 14.091 9.45442C13.437 8.77928 12.5499 8.4 11.625 8.4ZM11.625 6C13.1666 6 14.645 6.63214 15.7351 7.75736C16.8251 8.88258 17.4375 10.4087 17.4375 12C17.4375 13.5913 16.8251 15.1174 15.7351 16.2426C14.645 17.3679 13.1666 18 11.625 18C10.0834 18 8.605 17.3679 7.51494 16.2426C6.42489 15.1174 5.8125 13.5913 5.8125 12C5.8125 10.4087 6.42489 8.88258 7.51494 7.75736C8.605 6.63214 10.0834 6 11.625 6ZM19.1812 5.7C19.1812 6.09783 19.0282 6.47936 18.7556 6.76066C18.4831 7.04197 18.1135 7.2 17.7281 7.2C17.3427 7.2 16.9731 7.04197 16.7006 6.76066C16.4281 6.47936 16.275 6.09783 16.275 5.7C16.275 5.30218 16.4281 4.92064 16.7006 4.63934C16.9731 4.35804 17.3427 4.2 17.7281 4.2C18.1135 4.2 18.4831 4.35804 18.7556 4.63934C19.0282 4.92064 19.1812 5.30218 19.1812 5.7ZM11.625 2.4C8.74897 2.4 8.27933 2.4084 6.94129 2.4696C6.02989 2.514 5.41841 2.64 4.85111 2.868C4.34659 3.0696 3.98272 3.3108 3.59561 3.7116C3.23176 4.07448 2.952 4.5175 2.77721 5.0076C2.55634 5.5956 2.43428 6.2256 2.39243 7.1652C2.33198 8.49 2.325 8.9532 2.325 12C2.325 14.9688 2.33314 15.4536 2.39243 16.8348C2.43544 17.7744 2.5575 18.4068 2.77721 18.9912C2.97484 19.5132 3.20734 19.8888 3.59329 20.2872C3.98505 20.6904 4.34891 20.9316 4.84879 21.1308C5.42306 21.36 6.03454 21.4872 6.94129 21.5304C8.22469 21.5928 8.67341 21.6 11.625 21.6C14.501 21.6 14.9707 21.5916 16.3087 21.5304C17.2178 21.486 17.8304 21.36 18.3977 21.1332C18.9011 20.9304 19.2673 20.6892 19.6532 20.2908C20.045 19.8864 20.2787 19.5108 20.4716 18.9948C20.6925 18.4032 20.8157 17.7708 20.8576 16.8348C20.918 15.51 20.925 15.0468 20.925 12C20.925 9.0312 20.9169 8.5464 20.8576 7.1652C20.8146 6.2268 20.6925 5.5932 20.4716 5.0076C20.2964 4.518 20.0172 4.07515 19.6544 3.7116C19.303 3.33582 18.8738 3.047 18.3989 2.8668C17.8293 2.6388 17.2178 2.5128 16.3087 2.4696C15.0253 2.4072 14.5766 2.4 11.625 2.4ZM11.625 0C14.7835 0 15.1776 0.0119999 16.4168 0.0719999C17.6549 0.132 18.4977 0.3324 19.2394 0.63C20.0066 0.9348 20.653 1.3476 21.2993 2.0136C21.8904 2.61348 22.3478 3.33911 22.6397 4.14C22.9268 4.9044 23.1221 5.7756 23.1803 7.0536C23.2349 8.3328 23.25 8.7396 23.25 12C23.25 15.2604 23.2384 15.6672 23.1803 16.9464C23.1221 18.2244 22.9268 19.0944 22.6397 19.86C22.3487 20.6613 21.8912 21.3871 21.2993 21.9864C20.718 22.5964 20.0151 23.0685 19.2394 23.37C18.4989 23.6664 17.6549 23.868 16.4168 23.928C15.1776 23.9844 14.7835 24 11.625 24C8.46649 24 8.0724 23.988 6.83317 23.928C5.59511 23.868 4.7523 23.6664 4.01062 23.37C3.23445 23.0694 2.53138 22.5971 1.95068 21.9864C1.35943 21.3866 0.90202 20.661 0.610313 19.86C0.322013 19.0956 0.127875 18.2244 0.0697499 16.9464C0.0151124 15.6672 0 15.2604 0 12C0 8.7396 0.0116249 8.3328 0.0697499 7.0536C0.127875 5.7744 0.322013 4.9056 0.610313 4.14C0.901212 3.33862 1.35873 2.61279 1.95068 2.0136C2.53154 1.40308 3.23457 0.930875 4.01062 0.63C4.7523 0.3324 5.59395 0.132 6.83317 0.0719999C8.0724 0.0155999 8.46649 0 11.625 0Z" fill="white"></path>
  </symbol>
  <symbol fill="none" xmlns="http://www.w3.org/2000/svg" viewBox="0 0 27 24" id="mail">
    <path d="M1.33335 0H25.3333C25.687 0 26.0261 0.140476 26.2762 0.390524C26.5262 0.640573 26.6667 0.979711 26.6667 1.33333V22.6667C26.6667 23.0203 26.5262 23.3594 26.2762 23.6095C26.0261 23.8595 25.687 24 25.3333 24H1.33335C0.979727 24 0.640588 23.8595 0.390539 23.6095C0.140491 23.3594 1.52588e-05 23.0203 1.52588e-05 22.6667V1.33333C1.52588e-05 0.979711 0.140491 0.640573 0.390539 0.390524C0.640588 0.140476 0.979727 0 1.33335 0ZM24 5.65067L13.4293 15.1173L2.66668 5.62133V21.3333H24V5.65067ZM3.34802 2.66667L13.4147 11.5493L23.336 2.66667H3.34802Z" fill="#E77E42"></path>
  </symbol>
  <symbol fill="none" xmlns="http://www.w3.org/2000/svg" viewBox="0 0 32 32" id="search">
    <circle cx="14" cy="14" r="10" stroke="#202454" stroke-width="2" stroke-miterlimit="10"></circle>
    <line x1="21.4142" y1="21" x2="28" y2="27.5858" stroke="#202454" stroke-width="2" stroke-miterlimit="10" stroke-linecap="round"></line>
  </symbol>
  <symbol fill="none" xmlns="http://www.w3.org/2000/svg" viewBox="0 0 14 9" id="upbutton">
    <path d="M1 8L7 2L13 8" stroke="white" stroke-width="2"></path>
  </symbol>
  <symbol fill="none" xmlns="http://www.w3.org/2000/svg" viewBox="0 0 22 26" id="user">
    <g clip-path="url(#clip0_1:2056)">
      <circle cx="11" cy="8" r="6" stroke="#202454" stroke-width="2" stroke-miterlimit="10"></circle>
      <path d="M1 24C1 20.6863 3.68629 18 7 18H15C18.3137 18 21 20.6863 21 24V27H1V24Z" stroke="#202454" stroke-width="2" stroke-miterlimit="10"></path>
    </g>
    <defs>
      <clipPath id="clip0_1:2056">
        <rect width="22" height="26" fill="white"></rect>
      </clipPath>
    </defs>
  </symbol>
  <symbol fill="none" xmlns="http://www.w3.org/2000/svg" viewBox="0 0 22 24" id="viber">
    <path d="M21.3 13.05C21.6 10.35 21.6 8.1 21.3 6.15C21.0682 4.60457 20.3295 3.17994 19.2 2.1L18 1.35L15.3 0.45C14.1 0.15 12.6 0 11.1 0H10.5C8.41176 0.0684215 6.34265 0.421685 4.35 1.05C3.45 1.35 2.85 1.8 2.25 2.25C0.75 3.75 0.15 6 0 9.15V11.25L0.15 13.5L0.9 15.75C1.2826 16.5698 1.84564 17.2925 2.54698 17.8639C3.24833 18.4354 4.06982 18.8409 4.95 19.05C4.99582 20.7001 5.04582 22.3501 5.1 24L5.55 23.85L9.15 19.5C11.8806 19.6285 14.6143 19.3248 17.25 18.6C17.8573 18.2626 18.4574 17.9126 19.05 17.55L20.1 16.5L20.85 15L21.3 12.9V13.05ZM14.1 9C14.1 9.3 13.95 9.45 13.65 9.45L13.5 9C13.5 7.8 12.9 7.2 11.85 7.2L11.55 7.05V6.6H11.85C13.35 6.6 14.1 7.35 14.25 8.85L14.1 9ZM15.15 9.6C15.15 8.55 14.85 7.5 14.1 6.75C13.35 6 12.45 5.55 11.1 5.55L10.8 5.25V4.95L11.25 4.8C12.75 4.8 13.8 5.4 14.55 6.3C15.45 7.2 15.75 8.4 15.75 9.6V9.9H15.3L15.15 9.6ZM17.55 10.35L17.4 10.65H17.1L16.95 10.35C16.95 8.25 16.2 6.75 15 5.55C14.4163 4.95352 13.7147 4.48535 12.9398 4.17541C12.165 3.86547 11.334 3.72058 10.5 3.75C10.35 3.75 10.2 3.75 10.2 3.45C10.2 3.15 10.35 3 10.5 3C11.4386 2.99979 12.3677 3.18699 13.233 3.55063C14.0983 3.91427 14.8822 4.44702 15.5389 5.11765C16.1955 5.78827 16.7117 6.58326 17.057 7.45599C17.4024 8.32873 17.57 9.26164 17.55 10.2V10.35ZM16.95 15.45L15.75 16.95C15.3 17.25 14.7 17.4 14.25 17.1C12.3138 16.3677 10.4947 15.3571 8.85 14.1C7.28909 12.889 6.00963 11.3537 5.1 9.6C4.60082 8.72544 4.15014 7.82408 3.75 6.9V6.75C3.6 6.15 3.75 5.7 4.05 5.25L5.55 3.9C6 3.75 6.45 3.9 6.75 4.2C7.27583 5.01635 7.82607 5.81672 8.4 6.6C8.85 7.2 8.7 7.65 8.4 8.1L7.65 8.4L7.35 8.7V9.6L7.95 10.5L8.7 11.7L9.9 12.75L11.7 13.65C12 13.65 12.3 13.65 12.45 13.35L13.05 12.75C13.35 12.3 13.8 12.15 14.4 12.45L16.8 14.25C17.1 14.55 17.25 15 16.95 15.45Z" fill="white"></path>
  </symbol>
  <symbol fill="none" xmlns="http://www.w3.org/2000/svg" viewBox="0 0 32 32" id="basket_interface">
    <path d="M2.00005 12.5999C1.90005 12.0999 2.30005 11.4999 2.80005 11.3999C2.90005 11.3999 2.90005 11.3999 3.00005 11.3999H27.6C28.2 11.3999 28.6 11.7999 28.6 12.3999C28.6 12.4999 28.6 12.4999 28.6 12.5999L26 27.5999C25.9 28.0999 25.5 28.3999 25 28.3999H5.60005C5.10005 28.3999 4.70005 28.0999 4.60005 27.5999L2.00005 12.5999Z" stroke="#202454" stroke-width="2" stroke-miterlimit="10"></path>
    <path d="M11.8 2.3999L7.80005 10.3999M18.8 2.3999L22.8 10.3999L18.8 2.3999Z" stroke="#202454" stroke-width="2" stroke-miterlimit="10" stroke-linecap="round" stroke-linejoin="round"></path>
  </symbol>
  <symbol fill="none" xmlns="http://www.w3.org/2000/svg" viewBox="0 0 32 32" id="basket">
    <path d="M2.00005 12.5999C1.90005 12.0999 2.30005 11.4999 2.80005 11.3999C2.90005 11.3999 2.90005 11.3999 3.00005 11.3999H27.6C28.2 11.3999 28.6 11.7999 28.6 12.3999C28.6 12.4999 28.6 12.4999 28.6 12.5999L26 27.5999C25.9 28.0999 25.5 28.3999 25 28.3999H5.60005C5.10005 28.3999 4.70005 28.0999 4.60005 27.5999L2.00005 12.5999Z" stroke="#3a9efd" stroke-width="3" stroke-miterlimit="10"></path>
    <path d="M11.8 2.3999L7.80005 10.3999M18.8 2.3999L22.8 10.3999L18.8 2.3999Z" stroke="#3a9efd" stroke-width="3" stroke-miterlimit="10" stroke-linecap="round" stroke-linejoin="round"></path>
  </symbol>
  <symbol fill="none" xmlns="http://www.w3.org/2000/svg" viewBox="0 0 34 33" id="burger_small">
    <path d="M13.6667 0H20.3333C23.8696 0 27.2609 1.40476 29.7614 3.90524C32.2619 6.40573 33.6667 9.79711 33.6667 13.3333C33.6667 16.8696 32.2619 20.2609 29.7614 22.7614C27.2609 25.2619 23.8696 26.6667 20.3333 26.6667V32.5C12 29.1667 0.333339 24.1667 0.333339 13.3333C0.333339 9.79711 1.7381 6.40573 4.23858 3.90524C6.73907 1.40476 10.1305 0 13.6667 0Z" fill="#E77E42"></path>
  </symbol>
    <symbol fill="none" xmlns="http://www.w3.org/2000/svg" viewBox="0 0 34 33" id="chat">
    <path d="M13.6667 0H20.3333C23.8696 0 27.2609 1.40476 29.7614 3.90524C32.2619 6.40573 33.6667 9.79711 33.6667 13.3333C33.6667 16.8696 32.2619 20.2609 29.7614 22.7614C27.2609 25.2619 23.8696 26.6667 20.3333 26.6667V32.5C12 29.1667 0.333339 24.1667 0.333339 13.3333C0.333339 9.79711 1.7381 6.40573 4.23858 3.90524C6.73907 1.40476 10.1305 0 13.6667 0Z" fill="#E77E42"></path>
  </symbol>
  <symbol fill="none" xmlns="http://www.w3.org/2000/svg" viewBox="0 0 12 24" id="facebook">
    <path d="M8 13.8H10.8571L12 9H8V6.6C8 5.364 8 4.2 10.2857 4.2H12V0.168C11.6274 0.1164 10.2206 0 8.73486 0C5.632 0 3.42857 1.9884 3.42857 5.64V9H0V13.8H3.42857V24H8V13.8Z" fill="white"></path>
  </symbol>
  <symbol fill="none" xmlns="http://www.w3.org/2000/svg" viewBox="0 0 32 32" id="favorite">
    <path d="M15.8851 6.79804L16.5572 7.38524L17.2167 6.78397C19.9291 4.31118 24.3252 4.42616 26.9257 7.02267C29.6458 9.73872 29.6506 13.9816 27.1757 16.7006L16.5346 27.5785L5.77895 16.8391C3.29891 13.9841 3.44034 9.73856 6.02511 7.1577C8.76372 4.42325 13.0358 4.30874 15.8851 6.79804Z" stroke="#202454" stroke-width="2"></path>
  </symbol>
    <symbol fill="none" xmlns="http://www.w3.org/2000/svg" viewBox="0 0 12 14" id="geo">
    <path d="M9.98212 9.9355L5.83397 14L1.68582 9.87098C-0.582694 7.61292 -0.582694 3.9355 1.68582 1.67743C3.95434 -0.580629 7.64879 -0.580629 9.91731 1.67743C12.2506 4.00001 12.2506 7.61292 9.98212 9.9355ZM5.83397 7.74195C6.93582 7.74195 7.77842 6.90324 7.77842 5.80647C7.77842 4.70969 6.93582 3.87098 5.83397 3.87098C4.73212 3.87098 3.88953 4.70969 3.88953 5.80647C3.88953 6.90324 4.73212 7.74195 5.83397 7.74195Z" fill="#7B94B0"></path>
  </symbol>
  <symbol fill="none" xmlns="http://www.w3.org/2000/svg" viewBox="0 0 12 12" id="Star_off">
    <path d="M5.52984 1.29906C5.68901 0.859269 6.31099 0.859268 6.47016 1.29906L7.57584 4.35409C7.64542 4.54637 7.82508 4.67689 8.02945 4.68366L11.2766 4.79117C11.7441 4.80664 11.9363 5.39818 11.5672 5.68546L9.00337 7.68108C8.84201 7.80668 8.77338 8.01787 8.8301 8.21433L9.73129 11.3358C9.86102 11.7852 9.35784 12.1507 8.97057 11.8885L6.28035 10.0668C6.11103 9.95218 5.88897 9.95218 5.71965 10.0668L3.02943 11.8885C2.64216 12.1507 2.13897 11.7852 2.26871 11.3358L3.1699 8.21433C3.22662 8.01787 3.15799 7.80668 2.99663 7.68108L0.432795 5.68546C0.0637175 5.39818 0.255917 4.80664 0.723366 4.79117L3.97055 4.68366C4.17492 4.67689 4.35458 4.54637 4.42416 4.35409L5.52984 1.29906Z" fill="#E0E0E0"></path>
  </symbol>
  <symbol fill="none" xmlns="http://www.w3.org/2000/svg" viewBox="0 0 12 12" id="Star_on" >
    <path d="M5.52984 1.29906C5.68901 0.859269 6.31099 0.859268 6.47016 1.29906L7.57584 4.35409C7.64542 4.54637 7.82508 4.67689 8.02945 4.68366L11.2766 4.79117C11.7441 4.80664 11.9363 5.39818 11.5672 5.68546L9.00337 7.68108C8.84201 7.80668 8.77338 8.01787 8.8301 8.21433L9.73129 11.3358C9.86102 11.7852 9.35784 12.1507 8.97057 11.8885L6.28035 10.0668C6.11103 9.95218 5.88897 9.95218 5.71965 10.0668L3.02943 11.8885C2.64216 12.1507 2.13897 11.7852 2.26871 11.3358L3.1699 8.21433C3.22662 8.01787 3.15799 7.80668 2.99663 7.68108L0.432795 5.68546C0.0637175 5.39818 0.255917 4.80664 0.723366 4.79117L3.97055 4.68366C4.17492 4.67689 4.35458 4.54637 4.42416 4.35409L5.52984 1.29906Z" fill="#E77E42"></path>
  </symbol>
  <symbol fill="none" xmlns="http://www.w3.org/2000/svg" viewBox="0 0 11 14" id="Order_btn">
    <path d="M5.30989 10.6264H7.01331L4.81749 12.8222L5.99525 14L10.2205 9.77472L10.1939 9.7481L10.2205 9.72148L6.00191 5.50285L4.82415 6.68061L7.10647 8.96293H5.30989C3.30038 8.96293 1.6635 7.32605 1.6635 5.31654C1.6635 3.30703 3.30038 1.6635 5.30989 1.6635C7.3194 1.6635 8.95628 3.30038 8.95628 5.30989H10.6198C10.6198 2.38213 8.23765 0 5.30989 0C2.38213 0 0 2.38213 0 5.30989C0 8.23764 2.38213 10.6264 5.30989 10.6264Z" fill="white"></path>
  </symbol>
  <symbol fill="none" xmlns="http://www.w3.org/2000/svg" viewBox="0 0 32 32" id="seo-icon_3">
    <path d="M16.0001 16C14.457 16 12.9771 15.387 11.886 14.2959C10.7949 13.2048 10.1819 11.7249 10.1819 10.1818V1.45455C10.1819 1.06878 10.3351 0.698807 10.6079 0.426026C10.8807 0.153246 11.2507 0 11.6364 0H20.3637C20.7495 0 21.1194 0.153246 21.3922 0.426026C21.665 0.698807 21.8182 1.06878 21.8182 1.45455V10.1818C21.8182 11.7249 21.2053 13.2048 20.1141 14.2959C19.023 15.387 17.5431 16 16.0001 16ZM13.091 2.90909V10.1818C13.091 10.9534 13.3975 11.6933 13.943 12.2389C14.4886 12.7844 15.2285 13.0909 16.0001 13.0909C16.7716 13.0909 17.5115 12.7844 18.0571 12.2389C18.6027 11.6933 18.9092 10.9534 18.9092 10.1818V2.90909H13.091Z" fill="#E9793A"></path>
    <path d="M6.54558 16C5.5356 16.0197 4.53635 15.7899 3.63649 15.3309C2.53929 14.7922 1.61615 13.9552 0.972965 12.9158C0.329783 11.8764 -0.0073908 10.6768 0.000122891 9.45455C0.000321296 9.28588 0.0298522 9.11854 0.0873955 8.96L2.99649 0.96C3.09812 0.678879 3.2839 0.4359 3.52855 0.264126C3.7732 0.0923526 4.06483 0.000127185 4.36376 0H11.6365C12.0223 0 12.3922 0.153246 12.665 0.426026C12.9378 0.698807 13.091 1.06878 13.091 1.45455V9.45455C13.0872 11.1893 12.3963 12.852 11.1697 14.0786C9.94299 15.3053 8.28036 15.9962 6.54558 16ZM2.90921 9.68727C2.95348 10.3296 3.16819 10.9486 3.53124 11.4804C3.89428 12.0122 4.39253 12.4376 4.97467 12.7127C5.45933 12.9658 5.99884 13.0957 6.54558 13.0909C7.51 13.0909 8.43492 12.7078 9.11687 12.0258C9.79882 11.3439 10.1819 10.419 10.1819 9.45455V2.90909H5.38194L2.90921 9.68727Z" fill="#E9793A"></path>
    <path d="M25.4546 16C23.7199 15.9962 22.0572 15.3053 20.8305 14.0786C19.6039 12.852 18.913 11.1893 18.9092 9.45455V1.45455C18.9092 1.06878 19.0624 0.698807 19.3352 0.426026C19.608 0.153246 19.978 0 20.3637 0H27.6365C27.9354 0.000127185 28.227 0.0923526 28.4717 0.264126C28.7163 0.4359 28.9021 0.678879 29.0037 0.96L31.9128 8.96C31.9704 9.11854 31.9999 9.28588 32.0001 9.45455C31.9991 10.6935 31.6458 11.9066 30.9813 12.9522C30.3168 13.9979 29.3686 14.833 28.2474 15.36C27.3807 15.7928 26.4232 16.0122 25.4546 16ZM21.8183 2.90909V9.45455C21.8183 10.419 22.2014 11.3439 22.8833 12.0258C23.5653 12.7078 24.4902 13.0909 25.4546 13.0909C25.96 13.0889 26.458 12.9694 26.9092 12.7418C27.5153 12.4779 28.0385 12.0544 28.4227 11.5164C28.807 10.9785 29.038 10.3462 29.091 9.68727L26.6183 2.90909H21.8183Z" fill="#E9793A"></path>
    <path d="M27.6365 32H4.36373C3.97796 32 3.60799 31.8468 3.33521 31.574C3.06243 31.3012 2.90918 30.9312 2.90918 30.5455V14.0364C2.91022 13.7878 2.97494 13.5436 3.09716 13.3272C3.21939 13.1108 3.39504 12.9293 3.60736 12.8C3.82848 12.6723 4.07931 12.6051 4.33463 12.6051C4.58996 12.6051 4.84079 12.6723 5.06191 12.8C5.51312 13.0276 6.01109 13.1471 6.51645 13.1491C7.00136 13.153 7.48217 13.0599 7.93057 12.8753C8.37897 12.6907 8.78591 12.4182 9.12745 12.074C9.46899 11.7297 9.73822 11.3206 9.91931 10.8708C10.1004 10.4209 10.1897 9.93941 10.1819 9.45455C10.1819 9.06878 10.3352 8.69881 10.6079 8.42603C10.8807 8.15325 11.2507 8 11.6365 8C12.0222 8 12.3922 8.15325 12.665 8.42603C12.9378 8.69881 13.091 9.06878 13.091 9.45455V10.1818C13.091 10.9534 13.3975 11.6933 13.9431 12.2389C14.4886 12.7844 15.2285 13.0909 16.0001 13.0909C16.7716 13.0909 17.5116 12.7844 18.0571 12.2389C18.6027 11.6933 18.9092 10.9534 18.9092 10.1818V9.45455C18.9092 9.06878 19.0624 8.69881 19.3352 8.42603C19.608 8.15325 19.978 8 20.3637 8C20.7495 8 21.1195 8.15325 21.3922 8.42603C21.665 8.69881 21.8183 9.06878 21.8183 9.45455C21.8183 10.419 22.2014 11.3439 22.8833 12.0258C23.5653 12.7078 24.4902 13.0909 25.4546 13.0909C25.96 13.0889 26.458 12.9694 26.9092 12.7418C27.1303 12.6142 27.3811 12.5469 27.6365 12.5469C27.8918 12.5469 28.1426 12.6142 28.3637 12.7418C28.576 12.8711 28.7517 13.0526 28.8739 13.269C28.9961 13.4855 29.0609 13.7296 29.0619 13.9782V30.5455C29.062 30.9262 28.9127 31.2919 28.6462 31.5638C28.3797 31.8358 28.0172 31.9924 27.6365 32ZM5.81827 29.0909H26.1819V16C25.9397 16.0149 25.6968 16.0149 25.4546 16C24.5278 15.9987 23.6117 15.801 22.7668 15.4199C21.9219 15.0388 21.1673 14.483 20.5528 13.7891C20.0079 14.4739 19.3156 15.0269 18.5273 15.407C17.7391 15.7872 16.8752 15.9846 16.0001 15.9846C15.125 15.9846 14.2611 15.7872 13.4729 15.407C12.6846 15.0269 11.9923 14.4739 11.4474 13.7891C10.7523 14.5784 9.87906 15.1906 8.90012 15.5751C7.92119 15.9596 6.86472 16.1053 5.81827 16V29.0909Z" fill="#E9793A"></path>
    <path d="M30.5456 31.9999H1.45467C1.0689 31.9999 0.698929 31.8467 0.426149 31.5739C0.153368 31.3011 0.00012207 30.9311 0.00012207 30.5454C0.00012207 30.1596 0.153368 29.7896 0.426149 29.5168C0.698929 29.2441 1.0689 29.0908 1.45467 29.0908H30.5456C30.9313 29.0908 31.3013 29.2441 31.5741 29.5168C31.8469 29.7896 32.0001 30.1596 32.0001 30.5454C32.0001 30.9311 31.8469 31.3011 31.5741 31.5739C31.3013 31.8467 30.9313 31.9999 30.5456 31.9999Z" fill="#E9793A"></path>
    <path d="M20.3637 32.0001H11.6364C11.2507 32.0001 10.8807 31.8468 10.6079 31.5741C10.3351 31.3013 10.1819 30.9313 10.1819 30.5455V20.3637C10.1819 19.978 10.3351 19.608 10.6079 19.3352C10.8807 19.0624 11.2507 18.9092 11.6364 18.9092H20.3637C20.7495 18.9092 21.1194 19.0624 21.3922 19.3352C21.665 19.608 21.8182 19.978 21.8182 20.3637V30.5455C21.8182 30.9313 21.665 31.3013 21.3922 31.5741C21.1194 31.8468 20.7495 32.0001 20.3637 32.0001ZM13.091 29.091H18.9092V21.8183H13.091V29.091Z" fill="#E9793A"></path>
  </symbol>
  <symbol fill="none" xmlns="http://www.w3.org/2000/svg" viewBox="0 0 40 26" id="seo-icon_4">
    <rect x="1.25" y="1.25" width="37.5" height="23.5" rx="1.75" stroke="#E9793A" stroke-width="2.5" stroke-linecap="round" stroke-linejoin="round"></rect>
    <path d="M1.66663 6.5H38.3333M6.73909 13.0542H15.8333M6.73909 16.9542H11.6666M25.8333 19.5L34.1666 11.375" stroke="#E9793A" stroke-width="2.5" stroke-linecap="round"></path>
    <path d="M28.1667 12.1875C28.1667 12.9577 27.5191 13.625 26.6667 13.625C25.8142 13.625 25.1667 12.9577 25.1667 12.1875C25.1667 11.4173 25.8142 10.75 26.6667 10.75C27.5191 10.75 28.1667 11.4173 28.1667 12.1875Z" stroke="#E9793A" stroke-width="2"></path>
    <path d="M34.8333 18.6875C34.8333 19.4577 34.1858 20.125 33.3333 20.125C32.4809 20.125 31.8333 19.4577 31.8333 18.6875C31.8333 17.9173 32.4809 17.25 33.3333 17.25C34.1858 17.25 34.8333 17.9173 34.8333 18.6875Z" stroke="#E9793A" stroke-width="2"></path>
  </symbol>
  <symbol fill="none" xmlns="http://www.w3.org/2000/svg" viewBox="0 0 30 32" id="seo-icon_2">
    <g clip-path="url(#clip0_1_1124)">
      <path d="M1.5894 32V19.0199L1.37748 18.9139C0.529801 18.4371 0 17.4834 0 16.5298V11.2318C0 9.69536 1.21854 8.47682 2.75497 8.47682H4.07947L3.76159 7.84106C3.39073 7.09934 3.17881 6.25166 3.17881 5.40397C3.17881 3.97351 3.76159 2.59603 4.76821 1.5894C5.77483 0.582781 7.15232 0 8.58278 0C10.9139 0 13.1921 1.11258 14.6225 3.01987L14.9404 3.49669L15.2583 3.01987C16.6887 1.11258 18.9669 0 21.298 0C22.1457 0 22.9934 0.211921 23.7351 0.582781C26.3841 1.96026 27.4437 5.19205 26.0662 7.84106L25.8013 8.47682H27.1258C28.6623 8.47682 29.8808 9.69536 29.8808 11.2318V16.5298C29.8808 17.4834 29.351 18.4371 28.5033 18.9139L28.2914 19.0199V32H1.5894ZM16.106 29.6689H25.9603V19.2848H16.106V29.6689ZM3.92053 29.6689H13.7748V19.2848H3.92053V29.6689ZM16.106 16.9536H27.5497V10.8079H16.106V16.9536ZM2.33113 16.9536H13.7748V10.8079H2.33113V16.9536ZM21.298 2.33113C18.4371 2.33113 16.106 4.66225 16.106 7.52318V8.47682H21.298C22.9934 8.47682 24.3709 7.09934 24.3709 5.40397C24.3709 3.70861 22.9934 2.33113 21.298 2.33113ZM8.58278 2.33113C6.88742 2.33113 5.50993 3.70861 5.50993 5.40397C5.50993 7.09934 6.88742 8.47682 8.58278 8.47682H13.7748V7.52318C13.7748 4.66225 11.4437 2.33113 8.58278 2.33113Z" fill="#E9793A"></path>
    </g>
    <defs>
      <clipPath id="clip0_1_1124">
        <rect width="29.8808" height="32" fill="white"></rect>
      </clipPath>
    </defs>
  </symbol>
  <symbol fill="none" xmlns="http://www.w3.org/2000/svg" viewBox="0 0 45 32" id="seo-icon_1">
    <path d="M8.74216 8.80078H5.51645C4.8152 8.80078 4.25421 9.36178 4.25421 10.063C4.25421 10.7643 4.8152 11.3253 5.51645 11.3253H8.74216C9.4434 11.3253 10.0044 10.7643 10.0044 10.063C10.0044 9.36178 9.4434 8.80078 8.74216 8.80078Z" fill="#E9793A"></path>
    <path d="M8.74218 14.7378H3.36599C2.66475 14.7378 2.10376 15.2988 2.10376 16C2.10376 16.7013 2.66475 17.2623 3.36599 17.2623H8.74218C9.44342 17.2623 10.0044 16.7013 10.0044 16C10.0044 15.2988 9.44342 14.7378 8.74218 14.7378Z" fill="#E9793A"></path>
    <path d="M8.74215 20.6279H1.26224C0.560993 20.6279 0 21.1889 0 21.8902C0 22.5914 0.560993 23.1524 1.26224 23.1524H8.74215C9.44339 23.1524 10.0044 22.5914 10.0044 21.8902C10.0044 21.1889 9.44339 20.6279 8.74215 20.6279Z" fill="#E9793A"></path>
    <path d="M43.664 6.69686L29.4522 0.105186C29.1249 -0.0350621 28.7042 -0.0350621 28.3769 0.105186L14.1651 6.69686C13.6976 6.88386 13.4171 7.35135 13.4171 7.8656V24.1812C13.4171 24.6954 13.6976 25.1161 14.1651 25.3499L28.3769 31.8948C28.7042 32.0351 29.1249 32.0351 29.4522 31.8948L43.664 25.3031C44.1315 25.1161 44.412 24.6486 44.412 24.1344V7.8656C44.412 7.35135 44.1315 6.93061 43.664 6.69686ZM27.6289 28.7626L15.9416 23.3397V9.82907L20.2425 11.8393V19.3192C20.2425 20.0205 20.8035 20.5814 21.5048 20.5814C22.206 20.5814 22.767 20.0205 22.767 19.3192V13.008L27.6289 15.252V28.7626ZM28.9379 13.0548L24.5902 11.0446L29.2652 8.89408C29.9197 8.61359 30.2002 7.8656 29.8729 7.2111C29.5924 6.55661 28.8444 6.27611 28.1899 6.60336L21.5983 9.68882L17.7648 7.91235L28.9847 2.72316L40.2046 7.91235L28.9379 13.0548ZM41.8875 23.3397L30.2002 28.7626V15.252L41.8875 9.82907V23.3397Z" fill="#E9793A"></path>
    <path d="M33.7999 19.2256C33.9869 19.2256 34.1739 19.1789 34.3141 19.0854L38.7553 17.0284C39.4098 16.7479 39.6903 15.9999 39.3631 15.3454C39.0826 14.691 38.3346 14.4105 37.6801 14.7377L33.2389 16.7947C32.5844 17.0752 32.3039 17.8232 32.6311 18.4777C32.8649 18.9452 33.3324 19.2256 33.7999 19.2256Z" fill="#E9793A"></path>
    <path d="M33.7999 23.9942C33.9869 23.9942 34.1739 23.9475 34.3141 23.854L38.7553 21.797C39.4098 21.5165 39.6903 20.7685 39.3631 20.114C39.0826 19.4595 38.3346 19.179 37.6801 19.5063L33.2389 21.5632C32.5844 21.8437 32.3039 22.5917 32.6311 23.2462C32.8649 23.7137 33.3324 23.9942 33.7999 23.9942Z" fill="#E9793A"></path>
  </symbol>
  <symbol fill="none" xmlns="http://www.w3.org/2000/svg" viewBox="0 0 32 32" id="tab_cat">
    <mask id="mask0_1357_310" maskUnits="userSpaceOnUse" x="0" y="0" width="32" height="32">
      <circle cx="16" cy="16" r="16" fill="#FFAF00"></circle>
    </mask>
    <g mask="url(#mask0_1357_310)">
      <path d="M6.98024 29.9097C4.98768 19.8218 8.27579 7.4449 9.57134 6.71939C10.1543 6.39292 11.5794 8.55056 12.6806 10.1052H19.8709C20.5835 9.32788 21.8531 6.86635 22.5268 6.86635C23.3689 6.86635 23.9519 15.4817 23.5632 17.8785C23.3675 19.0858 22.1381 20.923 21.879 21.2469C23.5632 22.6072 27.2556 26.8825 27.2556 28.6315" stroke-width="1.14286"></path>
      <ellipse cx="13.0693" cy="15.316" rx="0.647773" ry="0.935672" fill="#202454"></ellipse>
      <ellipse cx="19.1588" cy="15.316" rx="0.647773" ry="0.935672" fill="#202454"></ellipse>
      <path d="M16.7801 17.8131C16.6821 17.932 16.542 17.9901 16.4028 17.9885C16.2592 17.9868 16.1165 17.9216 16.0218 17.794C15.8791 17.6017 15.9059 17.3612 16.0365 17.201C16.1231 17.0948 16.2553 17.0239 16.414 17.0257C16.5781 17.0277 16.7116 17.1063 16.7952 17.22C16.9174 17.3864 16.9327 17.6277 16.7801 17.8131Z" fill="#202454" stroke-width="3.30622"></path>
      <line x1="4.59545" y1="15.2391" x2="9.38897" y2="15.8869"  stroke-width="1.14286"></line>
      <path d="M9.59737 18.2016L3.11963 18.8494" stroke="#202454" stroke-width="1.14286"></path>
      <line x1="21.8064" y1="15.8866" x2="25.8226" y2="15.3684" stroke-width="1.14286"></line>
      <path d="M21.6747 18.2069L27.116 18.9843" stroke="#202454" stroke-width="1.14286"></path>
    </g>
  </symbol>
  <symbol fill="none" xmlns="http://www.w3.org/2000/svg" viewBox="0 0 33 40" id="tab_dog">
      <g mask="url(#mask0_1357_301)">
        <path d="M5.63596 29.9919C5.11774 23.1904 7.55337 7.16487 9.26349 6.54301C9.84649 6.33101 11.5307 8.61542 12.1137 10.7535L17.1015 10.1058C17.6845 8.87459 19.1744 5.73115 19.6279 5.70092C20.4052 5.6491 21.053 9.78141 21.7007 12.956C22.7372 12.8259 23.7088 12.7612 24.6805 12.6243M20.7291 32.5183L20.0813 23.579C22.6076 23.0608 26.3906 21.9078 26.7534 21.7005C27.1161 21.4932 27.725 17.8786 27.8546 14.8989M24.6805 12.6243C24.6805 12.6243 27.3814 12.2538 27.5955 12.4373C27.8677 12.6707 27.8724 13.691 27.8546 14.8989M24.6805 12.6243C24.6157 13.6033 24.7513 14.3868 25.1339 14.7693C25.6522 15.2875 27.1348 14.9905 27.8546 14.8989" stroke-width="1.14286"></path>
        <path d="M14.5856 15.0568C14.5856 15.2825 14.522 15.4789 14.4286 15.6138C14.3346 15.7495 14.2231 15.8088 14.1215 15.8088C14.02 15.8088 13.9084 15.7495 13.8145 15.6138C13.7211 15.4789 13.6574 15.2825 13.6574 15.0568C13.6574 14.831 13.7211 14.6346 13.8145 14.4997C13.9084 14.364 14.02 14.3048 14.1215 14.3048C14.2231 14.3048 14.3346 14.364 14.4286 14.4997C14.522 14.6346 14.5856 14.831 14.5856 15.0568Z" fill="#202454" stroke-width="0.367358"></path>
        <path d="M18.602 14.5385C18.602 14.7642 18.5383 14.9606 18.4449 15.0955C18.351 15.2312 18.2395 15.2904 18.1379 15.2904C18.0363 15.2904 17.9248 15.2312 17.8309 15.0955C17.7374 14.9606 17.6738 14.7642 17.6738 14.5385C17.6738 14.3127 17.7374 14.1163 17.8309 13.9814C17.9248 13.8457 18.0363 13.7865 18.1379 13.7865C18.2395 13.7865 18.351 13.8457 18.4449 13.9814C18.5383 14.1163 18.602 14.3127 18.602 14.5385Z" fill="#2F80ED" stroke-width="0.367358"></path>
    </g>
    <defs>
      <filter id="filter0_d_1357_301" x="0.993652" y="5.12891" width="31.4385" height="34.8711" filterUnits="userSpaceOnUse" color-interpolation-filters="sRGB">
        <feFlood flood-opacity="0" result="BackgroundImageFix"></feFlood>
        <feColorMatrix in="SourceAlpha" type="matrix" values="0 0 0 0 0 0 0 0 0 0 0 0 0 0 0 0 0 0 127 0" result="hardAlpha"></feColorMatrix>
        <feOffset dy="4"></feOffset>
        <feGaussianBlur stdDeviation="2"></feGaussianBlur>
        <feComposite in2="hardAlpha" operator="out"></feComposite>
        <feColorMatrix type="matrix" values="0 0 0 0 0 0 0 0 0 0 0 0 0 0 0 0 0 0 0.25 0"></feColorMatrix>
        <feBlend mode="normal" in2="BackgroundImageFix" result="effect1_dropShadow_1357_301"></feBlend>
        <feBlend mode="normal" in="SourceGraphic" in2="effect1_dropShadow_1357_301" result="shape"></feBlend>
      </filter>
    </defs>
  </symbol>
  <symbol fill="none" xmlns="http://www.w3.org/2000/svg" viewBox="0 0 32 32" id="tab_papug">
    <mask id="mask0_1357_333" maskUnits="userSpaceOnUse" x="0" y="0" width="32" height="32">
      <circle cx="16" cy="16" r="16" fill="#FFAF00"></circle>
    </mask>
    <g mask="url(#mask0_1357_333)">
      <g opacity="0.9">
        <ellipse cx="19.1091" cy="20.6097" rx="0.647773" ry="0.935672" fill="#202454"></ellipse>
        <path d="M9.06863 31.3988C9.06863 26.7823 11.7893 18.3137 11.7893 18.3137C6.80142 15.2873 6.66348 6.65381 7.38442 6.65381C9.78118 6.65382 15.9998 10.4217 16.518 15.0749C16.5395 15.268 26.0403 16.1761 25.7812 21.3583C25.7668 21.6462 25.7136 21.9272 25.6272 22.2004M18.7204 27.6417C19.3218 27.4793 20.4926 27.1863 21.3115 26.7823M21.3115 26.7823C21.657 28.1268 21.8427 30.9583 21.8945 31.5284M21.3115 26.7823C23.1549 25.8727 25.0548 24.0119 25.6272 22.2004M25.6272 22.2004C25.657 21.8765 24.8095 21.4986 23.5787 21.2288" stroke-width="1.14286"></path>
        <path d="M19.4329 15.7873C20.6637 11.2529 16.4298 6.03529 15.9349 6.20027C15.5462 6.32986 14.4559 7.97786 13.9822 10.3461" stroke-width="1.14286"></path>
      </g>
    </g>
  </symbol>
  <symbol fill="none" xmlns="http://www.w3.org/2000/svg" viewBox="0 0 20 22" id="tab_percent">
    <path d="M0.962891 4.92188C0.962891 3.70052 1.35938 2.71159 2.15234 1.95508C2.94531 1.18945 3.98438 0.806641 5.26953 0.806641C6.57292 0.806641 7.62109 1.1849 8.41406 1.94141C9.20703 2.6888 9.60352 3.70508 9.60352 4.99023V5.97461C9.60352 7.20508 9.20703 8.19401 8.41406 8.94141C7.62109 9.6888 6.58203 10.0625 5.29688 10.0625C4.0026 10.0625 2.95443 9.6888 2.15234 8.94141C1.35938 8.1849 0.962891 7.16862 0.962891 5.89258V4.92188ZM3.58789 5.97461C3.58789 6.52148 3.74284 6.96354 4.05273 7.30078C4.37174 7.62891 4.78646 7.79297 5.29688 7.79297C5.80729 7.79297 6.21289 7.62435 6.51367 7.28711C6.81445 6.94987 6.96484 6.4987 6.96484 5.93359V4.92188C6.96484 4.375 6.81445 3.93294 6.51367 3.5957C6.21289 3.25846 5.79818 3.08984 5.26953 3.08984C4.76823 3.08984 4.36263 3.25846 4.05273 3.5957C3.74284 3.92383 3.58789 4.38411 3.58789 4.97656V5.97461ZM10.4785 16.1191C10.4785 14.8887 10.8796 13.8997 11.6816 13.1523C12.4837 12.3958 13.5228 12.0176 14.7988 12.0176C16.0931 12.0176 17.1367 12.3913 17.9297 13.1387C18.7318 13.877 19.1328 14.8978 19.1328 16.2012V17.1855C19.1328 18.4069 18.7409 19.3958 17.957 20.1523C17.1732 20.8997 16.1296 21.2734 14.8262 21.2734C13.5137 21.2734 12.4609 20.8952 11.668 20.1387C10.875 19.3822 10.4785 18.3796 10.4785 17.1309V16.1191ZM13.1035 17.1855C13.1035 17.6868 13.2676 18.1152 13.5957 18.4707C13.9238 18.8262 14.334 19.0039 14.8262 19.0039C15.9382 19.0039 16.4941 18.3887 16.4941 17.1582V16.1191C16.4941 15.5723 16.3392 15.1348 16.0293 14.8066C15.7194 14.4694 15.3092 14.3008 14.7988 14.3008C14.2884 14.3008 13.8783 14.4694 13.5684 14.8066C13.2585 15.1348 13.1035 15.5859 13.1035 16.1602V17.1855ZM6.07617 19.5098L4.14844 18.4707L13.8691 2.91211L15.7969 3.95117L6.07617 19.5098Z" fill="#202454"></path>
  </symbol>
  <symbol fill="none" xmlns="http://www.w3.org/2000/svg" viewBox="0 0 32 32" id="tab_rabbit">
    <mask id="mask0_1357_324" maskUnits="userSpaceOnUse" x="0" y="0" width="32" height="32">
      <circle cx="16" cy="16" r="16" fill="#FFAF00"></circle>
    </mask>
    <g mask="url(#mask0_1357_324)">
      <path d="M22.2188 13.8628C24.3565 13.8628 28.8909 17.1008 26.235 21.5713C26.0131 21.9449 25.1922 20.3658 23.6439 20.211C22.4779 20.0944 22.5616 20.3859 21.6358 20.4701C20.8346 20.5429 20.038 19.6928 19.6925 19.3041"  stroke-width="1.14286" stroke-linecap="round"></path>
      <path d="M5.31165 29.086C6.08897 21.5062 9.39262 13.086 9.39262 13.086C9.39262 13.086 6.64596 9.2879 9.45739 5.44231C9.51289 5.36641 12.081 10.07 16.0647 10.4949C17.8784 10.6884 21.0987 10.7249 21.8299 11.1427C23.1902 11.92 22.2185 13.4963 21.8299 14.1225M20.7286 31.4828L19.1092 23.58M17.5546 23.2561C20.0161 24.163 22.944 22.3362 23.255 19.9524"  stroke-width="1.14286"></path>
      <ellipse cx="15.2224" cy="16.2596" rx="0.712551" ry="1.03644" fill="#202454"></ellipse>
    </g>
  </symbol>
  <symbol fill="none" xmlns="http://www.w3.org/2000/svg" viewBox="0 0 24 22" id="tab_star">
    <path d="M12 0L14.6942 8.2918H23.4127L16.3593 13.4164L19.0534 21.7082L12 16.5836L4.94658 21.7082L7.64074 13.4164L0.587322 8.2918H9.30583L12 0Z" fill="#202454"></path>
  </symbol>
  <symbol fill="none" xmlns="http://www.w3.org/2000/svg" viewBox="0 0 9 14" id="tab_arrow">
    <path d="M1 13L7 7L0.999999 1" stroke-width="2"></path>
  </symbol>
    <symbol xmlns="http://www.w3.org/2000/svg" viewBox="0 0 12 25" id="Facebook_pop-up">
    <path d="M8 14.3H10.8571L12 9.5H8V7.1C8 5.864 8 4.7 10.2857 4.7H12V0.668C11.6274 0.6164 10.2206 0.5 8.73486 0.5C5.632 0.5 3.42857 2.4884 3.42857 6.14V9.5H0V14.3H3.42857V24.5H8V14.3Z"></path>
  </symbol>
   <symbol xmlns="http://www.w3.org/2000/svg" viewBox="0 0 20 21" id="Google_pop-up">
    <path d="M1.064 6.01C1.89601 4.35324 3.17237 2.96051 4.75043 1.98747C6.32849 1.01443 8.14606 0.499416 10 0.5C12.695 0.5 14.959 1.49 16.69 3.105L13.823 5.973C12.786 4.982 11.468 4.477 10 4.477C7.395 4.477 5.19 6.237 4.405 8.6C4.205 9.2 4.091 9.84 4.091 10.5C4.091 11.16 4.205 11.8 4.405 12.4C5.191 14.764 7.395 16.523 10 16.523C11.345 16.523 12.49 16.168 13.386 15.568C13.9054 15.226 14.3501 14.7822 14.6932 14.2635C15.0363 13.7448 15.2706 13.1619 15.382 12.55H10V8.682H19.418C19.536 9.336 19.6 10.018 19.6 10.727C19.6 13.773 18.51 16.337 16.618 18.077C14.964 19.605 12.7 20.5 10 20.5C8.68663 20.5005 7.38604 20.2422 6.17254 19.7399C4.95905 19.2375 3.85645 18.5009 2.92776 17.5722C1.99907 16.6436 1.2625 15.541 0.760135 14.3275C0.257774 13.114 -0.000524861 11.8134 8.00714e-07 10.5C8.00714e-07 8.886 0.386001 7.36 1.064 6.01Z"></path>
  </symbol>
</svg>