<?xml version="1.0" standalone="no"?>
<!DOCTYPE svg PUBLIC "-//W3C//DTD SVG 20010904//EN"
 "http://www.w3.org/TR/2001/REC-SVG-20010904/DTD/svg10.dtd">
<svg version="1.0" xmlns="http://www.w3.org/2000/svg"
 width="260.000000pt" height="260.000000pt" viewBox="0 0 260.000000 260.000000"
 preserveAspectRatio="xMidYMid meet">
<metadata>
Created by potrace 1.14, written by Peter Selinger 2001-2017
</metadata>
<g transform="translate(0.000000,260.000000) scale(0.100000,-0.100000)"
fill="#000000" stroke="none">
<path d="M1285 1918 c-85 -66 -87 -273 -4 -332 61 -42 154 -27 194 31 13 21
21 40 17 44 -15 15 -78 13 -102 -4 -21 -14 -27 -15 -45 -3 -11 7 -21 25 -23
40 l-3 26 90 0 91 0 0 53 c-1 67 -29 131 -69 151 -44 23 -112 21 -146 -6z
m113 -91 c17 -36 9 -47 -39 -47 -33 0 -39 3 -39 21 0 60 53 78 78 26z"/>
<path d="M1861 1915 c-44 -38 -65 -101 -59 -184 8 -110 55 -166 138 -166 83 0
130 56 138 166 9 128 -44 209 -138 209 -37 0 -55 -6 -79 -25z m103 -80 c52
-53 15 -204 -41 -169 -49 30 -35 184 17 184 5 0 15 -7 24 -15z"/>
<path d="M2245 1915 c-23 -22 -25 -23 -25 -5 0 17 -7 20 -45 20 l-45 0 0 -180
0 -180 45 0 45 0 0 99 c0 117 13 163 44 159 20 -3 21 -9 24 -130 l3 -128 49 0
49 0 3 121 c3 103 6 124 20 133 33 21 43 -7 46 -134 l4 -120 45 0 44 0 -3 154
c-3 139 -5 158 -24 183 -30 41 -85 44 -119 7 l-25 -27 -21 27 c-28 35 -80 36
-114 1z"/>
<path d="M1540 1885 l0 -45 56 0 55 0 -60 -88 c-54 -77 -61 -93 -61 -135 l0
-47 125 0 125 0 0 45 0 45 -65 0 c-36 0 -65 3 -65 8 0 4 27 48 60 97 47 70 60
98 60 128 l0 37 -115 0 -115 0 0 -45z"/>
<path d="M222 1238 l3 -113 228 -5 227 -5 -255 -255 -255 -255 0 -107 0 -108
455 0 455 0 0 115 0 115 -267 0 -268 0 258 258 257 257 0 108 0 107 -420 0
-421 0 3 -112z"/>
<path d="M1370 1336 c-97 -28 -176 -89 -228 -177 -68 -114 -67 -356 3 -475 38
-65 112 -131 174 -156 49 -20 75 -22 201 -23 139 0 148 1 207 29 34 15 70 37
79 47 22 24 36 24 58 0 9 -10 45 -31 79 -47 54 -24 77 -28 183 -32 143 -5 211
10 292 65 96 65 150 174 160 320 9 154 -31 275 -121 360 -82 78 -143 98 -302
98 -148 0 -205 -14 -277 -69 l-43 -33 -35 28 c-62 52 -131 72 -265 75 -78 2
-136 -1 -165 -10z m226 -202 c71 -34 105 -145 84 -276 -12 -82 -27 -110 -73
-139 -26 -16 -45 -19 -101 -17 -64 4 -70 6 -102 40 -43 48 -57 103 -52 209 5
97 23 140 78 176 40 28 116 31 166 7z m645 -7 c45 -30 71 -85 77 -166 6 -96
-13 -175 -53 -219 -30 -34 -37 -36 -101 -40 -60 -3 -74 0 -104 20 -57 38 -75
86 -75 203 0 85 3 106 23 143 31 58 73 82 143 82 42 0 65 -6 90 -23z"/>
</g>
</svg>
